<svg xmlns="http://www.w3.org/2000/svg" width="100" height="99.999" viewBox="0 0 100 99.999">
  <g id="Group_1936505" data-name="Group 1936505" transform="translate(-1097.25 -7508.087)">
    <g id="Group_1466968" data-name="Group 1466968" transform="translate(296.469 4973.087)">
      <g id="Group_1350988" data-name="Group 1350988" transform="translate(-4 568)">
        <g id="Group_1204437" data-name="Group 1204437" transform="translate(804.781 1967)">
          <g id="Group_1204285" data-name="Group 1204285">
            <g id="Group_1204180" data-name="Group 1204180">
              <g id="Group_1204143" data-name="Group 1204143">
                <g id="Group_1188789" data-name="Group 1188789" transform="translate(0 0)">
                  <path id="Path_1243039" data-name="Path 1243039" d="M42.05,0h0a42.05,42.05,0,1,1,0,84.1h0a42.05,42.05,0,1,1,0-84.1Z" transform="translate(7.951 7.949)" fill="#ff9200"/>
                  <rect id="Rectangle_400907" data-name="Rectangle 400907" width="90.438" height="90.437" rx="45.218" transform="translate(4.782 4.781)" fill="none"/>
                  <g id="Group_1098742" data-name="Group 1098742" transform="translate(0)">
                    <g id="Rectangle_400898" data-name="Rectangle 400898" transform="translate(0)" fill="none" stroke="#fff" stroke-width="2" opacity="0.859">
                      <rect width="100" height="99.998" rx="49.999" stroke="none"/>
                      <rect x="1" y="1" width="98" height="97.998" rx="48.999" fill="none"/>
                    </g>
                    <g id="Rectangle_400907-2" data-name="Rectangle 400907" transform="translate(0)" fill="none" stroke="#0f1f33" stroke-linecap="round" stroke-width="2">
                      <rect width="100" height="99.998" rx="49.999" stroke="none"/>
                      <rect x="1" y="1" width="98" height="97.998" rx="48.999" fill="none"/>
                    </g>
                  </g>
                </g>
              </g>
            </g>
          </g>
        </g>
      </g>
    </g>
    <g id="_3" data-name="3" transform="translate(1066.175 7523.912)">
      <g id="Group_1936504" data-name="Group 1936504" transform="translate(62.701 7.876)">
        <g id="Group_1936502" data-name="Group 1936502" transform="translate(0 0)">
          <path id="Path_1490875" data-name="Path 1490875" d="M71.052,15H103.3a1.189,1.189,0,0,1,.869.36l5.852,5.852a1.189,1.189,0,0,1,.36.869V66.343a1.229,1.229,0,0,1-1.226,1.226H71.052a1.23,1.23,0,0,1-1.229-1.226V16.229A1.232,1.232,0,0,1,71.052,15Z" transform="translate(-69.823 -15)" fill="#eceff1" fill-rule="evenodd"/>
          <path id="Path_1490876" data-name="Path 1490876" d="M380.166,15.964v5.852a.616.616,0,0,0,.615.615h5.852a1.232,1.232,0,0,0-.255-.36l-5.852-5.852A1.291,1.291,0,0,0,380.166,15.964Z" transform="translate(-346.177 -15.858)" fill="#a79ba7" fill-rule="evenodd"/>
          <path id="Path_1490877" data-name="Path 1490877" d="M71.052,15h1.226V67.57H71.052a1.23,1.23,0,0,1-1.229-1.226V16.229A1.232,1.232,0,0,1,71.052,15Z" transform="translate(-69.823 -15)" fill="#d1d1d6" fill-rule="evenodd"/>
        </g>
        <g id="Group_1936503" data-name="Group 1936503" transform="translate(9.504 15.508)">
          <path id="Path_1490878" data-name="Path 1490878" d="M169.522,158.386a9.187,9.187,0,0,1,2.693,1.116l1.75-.776,2.062,2.062-.777,1.75a9.187,9.187,0,0,1,1.116,2.693l1.786.687v2.917l-1.786.687a9.194,9.194,0,0,1-1.116,2.692l.777,1.75-2.062,2.063-1.75-.778a9.19,9.19,0,0,1-2.693,1.118l-.687,1.785h-2.917l-.687-1.786a9.194,9.194,0,0,1-2.692-1.116l-1.75.778-2.063-2.063.778-1.749a9.22,9.22,0,0,1-1.118-2.693l-1.785-.687v-2.917l1.785-.687a9.19,9.19,0,0,1,1.118-2.693l-.778-1.75,2.063-2.062,1.749.776a9.216,9.216,0,0,1,2.693-1.116l.687-1.786h2.917Z" transform="translate(-156.6 -156.6)" fill="#ffe177" fill-rule="evenodd"/>
          <path id="Path_1490879" data-name="Path 1490879" d="M205.306,158.987l.588-.261,2.062,2.062-.776,1.75a9.187,9.187,0,0,1,1.116,2.693l1.786.687v2.917l-1.786.687a9.194,9.194,0,0,1-1.116,2.692l.776,1.75-2.062,2.063-.588-.261,1.8-1.8-.778-1.75a9.194,9.194,0,0,0,1.116-2.692l1.786-.687v-2.917l-1.786-.687a9.187,9.187,0,0,0-1.116-2.693l.778-1.75Zm-12.851,0,.261-.261,1.749.776c-.123.069-.246.14-.365.215Zm9-.6a9.187,9.187,0,0,1,2.693,1.116l-.482.215a12.018,12.018,0,0,0-3.06-1.331l-.687-1.786h.849Zm-6.984,16.866-1.75.778-.261-.261,1.645-.731Q194.279,175.148,194.466,175.251Zm9.678,0a9.19,9.19,0,0,1-2.693,1.118l-.687,1.785h-.849l.687-1.785a12.051,12.051,0,0,0,3.061-1.331Z" transform="translate(-188.528 -156.6)" fill="#ffd064" fill-rule="evenodd"/>
          <path id="Path_1490880" data-name="Path 1490880" d="M213.649,208.564a5.086,5.086,0,1,1-5.085,5.086A5.086,5.086,0,0,1,213.649,208.564Z" transform="translate(-202.873 -202.873)" fill="#eceff1" fill-rule="evenodd"/>
          <path id="Path_1490881" data-name="Path 1490881" d="M213.649,208.564c.116,0,.23,0,.345.012a5.085,5.085,0,0,0,0,10.148c-.115.007-.229.011-.345.011a5.086,5.086,0,0,1,0-10.171Z" transform="translate(-202.873 -202.873)" fill="#d1d1d6" fill-rule="evenodd"/>
        </g>
      </g>
      <path id="Path_1490882" data-name="Path 1490882" d="M103.571,13.519a1.875,1.875,0,0,1,.568,1.367v44.5a1.94,1.94,0,0,1-1.935,1.935H63.764a1.94,1.94,0,0,1-1.939-1.935V8.939A1.94,1.94,0,0,1,63.764,7H96.252a1.875,1.875,0,0,1,1.367.568ZM95.813,8.752H63.764a.187.187,0,0,0-.187.187V59.387a.185.185,0,0,0,.187.183H102.2a.183.183,0,0,0,.183-.183V15.326H97.22a1.415,1.415,0,0,1-1.408-1.408Zm5.334,4.821L97.565,9.991v3.582ZM84.9,50.3l.444.472a.876.876,0,1,1-1.276,1.2l-1.729-1.836a.876.876,0,0,1-.131-1.022l1.212-2.211a.876.876,0,1,1,1.537.842l-.458.835a14.506,14.506,0,1,0-9.059-2.033.876.876,0,0,1-.913,1.5A16.254,16.254,0,1,1,84.9,50.3Zm.881-25.866a10.036,10.036,0,0,1,2.09.866l1.34-.6a.876.876,0,0,1,.976.181l2.062,2.062a.876.876,0,0,1,.182.974l-.594,1.341a10.019,10.019,0,0,1,.867,2.094l1.367.526a.876.876,0,0,1,.562.818v2.916a.876.876,0,0,1-.562.818l-1.367.526a10.128,10.128,0,0,1-.867,2.09l.594,1.342a.876.876,0,0,1-.182.974l-2.062,2.062a.876.876,0,0,1-.974.182l-1.34-.594a10.016,10.016,0,0,1-2.092.867l-.526,1.367a.876.876,0,0,1-.818.562H81.525a.876.876,0,0,1-.818-.562l-.526-1.367a10.107,10.107,0,0,1-2.093-.867l-1.342.594a.876.876,0,0,1-.974-.182L73.71,41.371a.876.876,0,0,1-.181-.975l.6-1.34a10.1,10.1,0,0,1-.868-2.091l-1.368-.527a.876.876,0,0,1-.562-.818V32.7a.876.876,0,0,1,.562-.818l1.368-.526a10.1,10.1,0,0,1,.868-2.093l-.6-1.34a.876.876,0,0,1,.181-.975l2.062-2.062a.876.876,0,0,1,.975-.181l1.34.6a10.04,10.04,0,0,1,2.091-.867l.529-1.371a.876.876,0,0,1,.817-.561h2.916a.876.876,0,0,1,.818.562ZM84.31,25.486l-.471-1.227H82.126l-.474,1.228a.876.876,0,0,1-.615.537A8.3,8.3,0,0,0,78.6,27.033a.876.876,0,0,1-.816.055l-1.2-.534-1.211,1.211.534,1.2a.876.876,0,0,1-.055.816,8.369,8.369,0,0,0-1.013,2.441.876.876,0,0,1-.537.613l-1.224.471v1.713l1.224.471a.876.876,0,0,1,.537.613,8.347,8.347,0,0,0,1.012,2.437.876.876,0,0,1,.055.817l-.534,1.2,1.211,1.211,1.2-.532a.876.876,0,0,1,.813.054A8.364,8.364,0,0,0,81.04,42.3a.876.876,0,0,1,.616.538l.471,1.224H83.84l.471-1.224a.876.876,0,0,1,.615-.538,8.261,8.261,0,0,0,2.435-1.009.876.876,0,0,1,.816-.056l1.2.532,1.212-1.212-.532-1.2a.876.876,0,0,1,.054-.813,8.374,8.374,0,0,0,1.011-2.438.876.876,0,0,1,.538-.615l1.224-.471V33.306l-1.224-.471a.876.876,0,0,1-.538-.616,8.28,8.28,0,0,0-1.009-2.438.876.876,0,0,1-.055-.814l.532-1.2-1.211-1.211-1.2.534a.876.876,0,0,1-.816-.055,8.3,8.3,0,0,0-2.436-1.009.876.876,0,0,1-.615-.538ZM82.982,28.2a5.964,5.964,0,1,1-5.963,5.963A5.963,5.963,0,0,1,82.982,28.2Zm0,1.752a4.212,4.212,0,1,0,4.213,4.21A4.209,4.209,0,0,0,82.982,29.951Z" fill-rule="evenodd"/>
    </g>
  </g>
</svg>
